# xmcd CD database file
#
# Track frame offsets:
#	150
#	29111
#	57790
#	75113
#	79300
#	90996
#	109119
#	141633
#	163892
#	169166
#	185099
#	197106
#	207820
#	224427
#	238888
#	251225
#	264552
#	273025
#	286371
#	300127
#	315557
#	327455
#
# Disc length: 4557 seconds
#
# Revision: 0
# Processed by: cddbd v1.5.2PL0 Copyright (c) Steve Scherf et al.
# Submitted via: CDex 1.51
#
DISCID=4511cb16
DTITLE=Peterson, Oscar - 8 Classic Albums [CD 4] - Porgy and Bess - Frank Sinatra
DYEAR=1959
DGENRE=Jazz
TTITLE0=I Got Plenty Of Nuttin'
TTITLE1=I Wants To Stay Here
TTITLE2=Summertime
TTITLE3=Oh, Dey's So Fresh And Fine
TTITLE4=Oh, Lawd, I'm On My Way
TTITLE5=It Ain't Necessarily So
TTITLE6=There's A Boat Dat's Leavin' Soon For New York
TTITLE7=Oh Bess, Where's My Bess
TTITLE8=Here Come De Honey man
TTITLE9=Bess, You Is My Woman Now
TTITLE10=You Make Me Feel Young
TTITLE11=Come Dance With Me
TTITLE12=Learnin' The Blues
TTITLE13=Witchcraft
TTITLE14=Love Is The Tender Trap
TTITLE15=Saturday Night
TTITLE16=Just In Time
TTITLE17=It Hapened In Monterey
TTITLE18=I Get A Kick Out Of You
TTITLE19=All Of Me
TTITLE20=The Birth Of The Blues
TTITLE21=How About You
EXTD=YEAR: 1959
EXTT0=
EXTT1=
EXTT2=
EXTT3=
EXTT4=
EXTT5=
EXTT6=
EXTT7=
EXTT8=
EXTT9=
EXTT10=
EXTT11=
EXTT12=
EXTT13=
EXTT14=
EXTT15=
EXTT16=
EXTT17=
EXTT18=
EXTT19=
EXTT20=
EXTT21=
PLAYORDER=
